# xmcd CD database file
#
# Track frame offsets:
#	150
#	16863
#	34190
#	50922
#	73180
#	97583
#	114872
#	131949
#	148830
#	165872
#	184599
#	201792
#	218994
#	235711
#	255409
#	279244
#	300734
#	314973
#	335796
#
# Disc length: 4676 seconds
#
# Revision: 0
# Processed by: cddbd v1.5.2PL0 Copyright (c) Steve Scherf et al.
# Submitted via: CDex 1.70beta2
#
DISCID=16124213
DTITLE=Sascha Gutzeit - Entschleuniger 
DYEAR=2007
DGENRE=Blues
TTITLE0=Ich bin die Vorgruppe
TTITLE1=Mondlicht Motel
TTITLE2=Kalamazoo
TTITLE3=Zigaretten
TTITLE4=Hey Taxifahrer
TTITLE5=Down the highway
TTITLE6=Füße hoch, Niveau kütt
TTITLE7=Eines langen Tages Reise in die Nacht
TTITLE8=Frau Schröder
TTITLE9=Mein bester Song
TTITLE10=Was muß ich machen, daß du rockst?
TTITLE11=Aufzug
TTITLE12=Das kriegst du nicht hin
TTITLE13=Nordstadt Blues
TTITLE14=Rastaplatz
TTITLE15=Immer woanders
TTITLE16=Entschleuniger
TTITLE17=Auf meiner Seite der Stadt
TTITLE18=Was übrig bleibt
EXTD=YEAR: 2007
EXTT0=
EXTT1=
EXTT2=
EXTT3=
EXTT4=
EXTT5=
EXTT6=
EXTT7=
EXTT8=
EXTT9=
EXTT10=
EXTT11=
EXTT12=
EXTT13=
EXTT14=
EXTT15=
EXTT16=
EXTT17=
EXTT18=
PLAYORDER=
